<?xml version="1.0" encoding="utf-8"?>
<!-- Generator: Adobe Illustrator 21.0.0, SVG Export Plug-In . SVG Version: 6.00 Build 0)  -->
<svg version="1.1" id="Layer_1" xmlns="http://www.w3.org/2000/svg" xmlns:xlink="http://www.w3.org/1999/xlink" x="0px" y="0px"
	 viewBox="0 0 1434.1 834.4" style="enable-background:new 0 0 1434.1 834.4;" xml:space="preserve">
<style type="text/css">
	.st0{fill:#FFFFFF;}
</style>
<path d="M542.1,573.5c-2.5-1.4-4.3-2.4-6.2-3.5c0.3-1.3,0.4-2.5,0.8-3.3c8.5-14.9,17-29.7,25.6-44.6c1.2-2.2,2.6-4.3,3.6-6.6
	c5.1-12.6,12.2-23.8,22.4-33.2c4.1-3.7,6.6-9.3,9.2-14.3c4.9-9.4,9.5-19,14.5-29.4c-7-6.8-16.6-11.3-26.4-15.5
	c-20.5-8.8-42.1-13.5-64.3-15.9c-4.4-0.5-7.4,0.3-10,4.1c-29.9,41.9-54.3,86.4-66.8,136.9c-5.5,22.4-3,43,7.8,63.2
	c10.9,20.3,24.4,38.6,39.7,55.8c1.3,1.5,2.6,2.9,3.6,4.8c-13.3-6.3-25.7-14.2-41-14.7c-9-17.4-14-35.5-17.4-54.2
	c-5.2-29-3.2-57.5,5.7-85.7c15.2-48.3,36.5-93.8,61.7-137.6c1.8-3.2,5-6,8.2-7.9c22.3-13.6,25.2-21.4,16.4-46
	c-1.8-5-4.1-9.8-5.4-15.1c5.7,5.9,10.4,12.7,13.3,20.3c3,7.9,5.8,16.3,6.4,24.6c0.6,8.3-1.7,16.9-2.8,26.1
	c27.1,13.4,53,29,76.9,49.6c4.6-7.8,8.8-14.7,12.9-21.7c14.2-24.4,28.4-48.7,42.5-73.2c3.6-6.2,6.7-12.6,10.1-18.9
	c7.6-14.2,14.2-28.9,23.1-42.2c6-9,5.1-16.5,0.3-24.5c-8.9-14.9-17.7-30.1-30-42.6c-7.1-7.3-15.2-13.7-23-20.3
	c-5.2-4.4-10.6-17.7-10.4-25.2c0-2.2-0.9-5-2.4-6.5c-8.4-8.2-10.6-17.3-6.1-28.2c1-2.5,0.6-5.6,1.2-8.4c0.8-3.9,1.9-7.7,2.9-11.5
	c0.9,0,1.8,0.1,2.6,0.1c1.5,5.3,2.9,10.5,4.7,16.8c0.8-1.9,1.5-3.2,2.5-5.4c1.6,3.7,3.2,6.8,4.3,10c3,8.2,8.4,14.2,16.9,16.6
	c5,1.4,6.7,4.1,6.9,9.2c0.5,12.2,5,23.1,10.6,33.9c8.8,17,19.5,33.1,26.1,51.3c1.3,3.5,3.4,6.8,5.8,11.5c3.4-6.9,6.8-12,8.6-17.7
	c5.6-17.1,16.8-31.3,24.4-47.4c4.5-9.7,8.7-19.3,9.1-30c0.2-6.3,2.1-9.7,8.5-11.5c6.7-1.9,11.6-6.8,14.3-13.5
	c1.6-3.9,3.3-7.8,5.2-12.3c1.1,1.9,1.8,3.2,3.1,5.6c1.6-6.6,0.3-13.2,7.2-17.8c0.9,4.9,1.7,9.2,2.5,13.6c0.6,3.1,0.7,6.5,1.9,9.4
	c4.3,9.7,0.7,17.2-5.5,24.5c-1.5,1.8-3.5,3.9-3.7,6.1c-1.5,16.1-4.1,19.4-15.9,30.8c-14.7,14.2-30.4,27.8-39.6,46.8
	c-3.4,7-7.3,13.8-11.3,20.5c-2.1,3.6-1.4,6.5,0.5,9.9c20.3,36,40.6,72.2,60.9,108.2c9.3,16.5,18.6,33,27.9,49.4
	c1.4,2.4,3.1,4.6,3.9,5.9c24.6-15.5,48.8-30.6,73.9-46.4c-2.1-12.9-5.7-27.2,0.3-41.5c4.2-10.1,9.1-19.8,17.5-27.5
	c-0.8,1.8-1.6,3.6-2.4,5.5c-2.1,5.3-4.5,10.5-6,16c-5.3,18.7-2.4,26.7,14.4,36.7c7.1,4.2,12,9.5,15.9,16.6
	c24.7,44.9,46.5,91,60.4,140.5c12.7,45.2,5,88.4-12.2,128.2c-15.6,6.2-29.2,11.6-42.8,17c0.3-0.4,0.8-1.3,1.5-2
	c0.9-1.1,2-2.1,2.9-3.1c15.4-17.5,29.1-36.1,39.8-57c9.6-18.6,12.1-37.6,7.4-58.1c-8.8-38.1-24.9-72.9-45.1-106
	c-6.9-11.3-14.6-22-22-33c-2-3-4.2-5.3-8.7-4.8c-29.4,3.1-57.8,9.8-83.5,25.1c-1.8,1.1-3.3,2.4-4.5,3.3c4.5,9.6,8,18.9,13.1,27.4
	c4.9,8.2,11.5,15.4,17.4,22.9c2,2.5,4.8,4.5,6.2,7.2c10.7,19.7,21.2,39.6,31.7,59.4c1.8,3.4,3.8,6.8,6,10.7c-2.3,1.4-4.3,2.7-7,4.4
	c-4.4-7-8.4-13.7-12.7-20.1c-8.8-13-17.1-26.1-23.9-40.4c-5.4-11.4-14-21.5-22.3-31.3c-6.3-7.5-12.4-14.6-14-24.6
	c-0.4-2.6-2.3-5-4.3-9c-36.7,35.4-54.2,79.8-69.3,126.7c-1-11.9,9.6-46.5,21.7-72.3c10.8-23.2,24.7-44.3,43.5-61.5
	C786.2,383.7,751.4,331,719,275.4c-31.7,54.2-66.1,106-93.7,162.5c37.1,38.2,53.9,86.2,64,137.3c-14.9-46.9-32.2-92.5-68.7-130.4
	c-2.5,6.3-4.9,10.9-6.2,15.9c-1.9,7.2-5.8,12.7-10.5,18.3c-8.4,10.1-18.2,19.9-23.5,31.6c-9.5,21.1-24.1,38.7-35.1,58.7
	C544.6,570.5,543.6,571.5,542.1,573.5z"/>
<path d="M0,0c61.1,27.6,119.2,56.6,175.9,88.3c54.3,30.4,106.7,63.8,155.6,102.5c50.6,40,97.6,83.8,141.4,131c1.4,1.6,2.7,3.3,4,5
	c0.1,0.1-0.1,0.6-0.4,1.8c-2.7-2.5-5.2-4.7-7.6-7c-53.3-50.9-108.9-99.1-169.1-141.7c-62-43.9-129.8-74.7-203.7-92.4
	C94.1,87,92,86.6,89,86c-0.7,3-1.5,5.6-1.7,8.2C81.4,158,67.7,219.8,42,278.6c-1.4,3.3-2.9,6.5-5.6,9.4c2.3-10,4.7-20,6.7-30
	c6.8-33.3,11.6-66.9,11.6-101C54.7,99.9,35.9,49.2,2,3.8C1.5,3.2,1.3,2.5,0,0z"/>
<path d="M1434.1,7.1c-9.3,15.8-18.5,30.2-26.3,45.3c-22,42.7-29.8,88.3-25.9,136.1c2.7,32.9,7.6,65.3,15.7,97.2
	c0.4,1.6,0.3,3.4-0.1,5.2c-29.8-62.4-43.7-128.8-49.5-198.2c-3.6,0.5-6.3,0.6-8.9,1.2c-75,17.9-143.6,49.6-206.3,94.5
	c-57.7,41.3-111.2,87.5-162.6,136.3c-3.5,3.3-7,6.6-11.7,8.9c2.1-2.6,4.2-5.2,6.4-7.7c87.5-94.3,187.4-172.9,300.5-234.5
	C1320.3,61.5,1376,33.3,1434.1,7.1z"/>
<path d="M671.7,470.8c-7.5-4.9-17.9-4.7-20.8-16.7c13.7,1.9,24.1-3.1,33.2-11.8c1.4-1.4,3.7-1.9,5.7-2.5c8.1-2.5,8.1-2.4,16.4-11.5
	c-2.9-3-5.9-6.1-9.5-9.8c2.5-2,4.4-4.2,6.7-5.4c6.3-3,8.4-7.6,8.4-14.5c0.1-17.1,1.1-34.3,1.1-51.4c0-7.3,2.4-15.4-6.8-20.4
	c-3-1.6-1.9-6.7,1.3-9.3c3.5-2.9,7.4-5.2,11.9-8.4c4.1,3,8.9,5.9,13,9.5c3.3,2.8,2.9,8.1-1.5,9.7c-4.9,1.8-4.4,5-4.5,8.3
	c-0.1,20.4-0.1,40.7,0,61.1c0,6.8,2.3,12.4,9.1,15.5c2.4,1.1,4.2,3.4,6.6,5.4c-3.6,3.7-6.6,6.8-9.4,9.6c4.5,7.8,10.3,11.4,18.2,12.2
	c1.9,0.2,3.8,1.8,5.4,3.2c8.3,7.3,17.4,12.4,29,10.8c0.8-0.1,1.7,0.9,3.2,1.8c-4.2,9.6-13.8,10.4-22.2,15.5
	c-0.2-8.4-4.6-12.1-10.9-11.6c-5.3,0.4-10.3,3-15.7,4.8c-2.2,7.6-4.3,14.9-6.3,22.3c-0.8,3-1.6,6.2-1.7,9.3
	c-0.7,24.3-1.1,48.6-1.7,72.9c-1.3,58.9-2.3,117.9-4,176.8c-0.8,26.8-3,53.5-4.7,80.2c-0.2,2.8-1,5.5-2.9,8.2
	c-1-9.2-2.3-18.4-2.8-27.7c-1.2-20.7-2.1-41.4-2.8-62.1c-1.2-36.8-2.3-73.6-3.1-110.4c-1-45.7-1.3-91.5-2.9-137.2
	c-0.4-10.3-3.7-20.9-7.8-30.4c-1.6-3.7-9-5.8-14.1-6.8c-4.9-1-10.1,0.7-11.8,6.8C673,467.9,672.4,469.1,671.7,470.8z"/>
<path d="M457.5,373.8c-93.4,8.5-181.3,32.2-262.4,85.7c41.9,11.5,74.9,34,105.2,61.5c-27.1-16.2-55.6-28.6-86.9-34.1
	c-31.1-5.5-62.4-7.2-94.7-7.9c2.8-1.7,5.5-3.5,8.3-5.1c55.2-32.7,112.4-60.9,174-79.4c45.1-13.5,91.3-20.3,138.3-20.8
	C445.4,373.8,451.5,373.8,457.5,373.8z"/>
<path d="M978.2,381.1c34-2.1,67.7,1,101.3,6.8c71.3,12.4,136.6,40.9,199.6,75.4c12.8,7,25.3,14.4,37.7,23.6c-2.6,0-5.1,0-7.7,0
	c-33-0.3-65.7,1.4-98,8.8c-23.5,5.4-45.5,14.6-66.2,27c-2.9,1.8-5.9,3.6-9.2,4.7c29.8-27.4,62.8-49.5,102.6-60.8
	C1209.5,439.9,1102.4,388.5,978.2,381.1z"/>
<path d="M977.1,361c148.6-69.7,300.1-72.4,455.6-18.6c-25.9,9.8-50,20.5-71,37.1c-21.1,16.7-36.2,38.3-49.8,62.2
	c6.5-33.3,22.9-64.4,61-94.5c-2.1-1.4-3.9-2.9-6-3.8c-38.9-17.4-79.8-27.2-122.3-29.8c-89.3-5.4-174.9,11.8-257.9,43.9
	C983.5,358.6,980.3,359.8,977.1,361z"/>
<path d="M458.2,354.3c-15.4-5.6-30.6-11.6-46.1-16.6c-57.8-18.8-116.9-29.5-177.7-31.4c-53.9-1.7-106.1,6.5-156.2,26.6
	c-4.3,1.7-8.5,3.8-12.7,5.7c-1,0.4-1.9,1-4,2.1c33.2,24.1,53.7,55,63,93.1c-10.2-13.9-20-28.3-30.8-41.9
	c-11.1-13.8-25-24.6-40.6-32.9c-15.7-8.4-32-15.6-48.3-23.5C158.2,282.2,309.7,285,458.2,354.3z"/>
<path d="M416.6,629c-17.4-35.8-45.8-60-80.4-77.4c22.1-48.9,83.1-115.3,120.8-130.3c-41.1,33.8-76.8,69.3-94.1,119
	c10.6,13.9,21.6,27.4,31.6,41.7C404.5,596.2,411.5,612.2,416.6,629z"/>
<path d="M1073.3,547.9c-18-51-53.2-86.5-93.2-119.1c30.2,7.4,100.2,83.4,119.3,129.2c-34.3,17.2-62.3,41.2-79.7,76.3
	C1030.2,600.8,1049.5,572.8,1073.3,547.9z"/>
<path d="M717.6,120.5c-13.1-23.4-25.3-45-38.2-68.1c26.4,0.6,51.4,1.2,78,1.8C743.9,76.6,731.2,97.9,717.6,120.5z M717.8,100.2
	c1.4,0,2.8,0,4.2,0c0-13,1.2-25.9,0.1-40.9c-6.1,5.3-10.6,9.2-15.1,13c0.4,0.7,0.8,1.3,1.2,2c2.8-0.9,5.6-1.8,9.6-3.1
	C717.8,81.4,717.8,90.8,717.8,100.2z"/>
<path d="M784.5,114.1c-21.5,2.5-41.5,4.9-63.9,7.5c13.8-22.8,26.3-43.4,39.7-65.5C768.4,75.7,776.2,94.2,784.5,114.1z"/>
<path d="M680.2,49.4c13.9-17.1,26.6-32.7,40.1-49.2c12.2,16.6,23.9,32.6,36.2,49.2C731,49.4,706.6,49.4,680.2,49.4z"/>
<path d="M714.5,121.6c-21.1-3.2-40.6-6.2-61.2-9.3c7.9-19.3,15.4-37.4,23.7-57.4C689.7,77.6,701.6,98.8,714.5,121.6z"/>
<path d="M783.9,104.2C776.9,87.4,770,70.6,762.7,53c7.6-4.1,15-8,23-12.3c0,21.8,0,42.5,0,63.1C785.1,103.9,784.5,104.1,783.9,104.2
	z"/>
<path d="M783.7,37.8c-7.4,4-14.5,7.8-22.6,12.2c-10.2-13.8-20.4-27.7-31-42.1C738.5,9.2,768.1,25.9,783.7,37.8z"/>
<path d="M774.8,120.5c-17.7,9.8-35.4,19.6-54.3,30.1c0-8.9,0-16.5,0-25.1c17.7-2.3,35.6-4.6,53.5-6.9
	C774.3,119.2,774.5,119.9,774.8,120.5z"/>
<path d="M676.4,48.6c-7-4.3-13.3-8.2-21.2-13.1c19-10.6,36.8-20.5,54.5-30.4c0.4,0.4,0.9,0.7,1.3,1.1c-5.6,6.9-11.1,13.8-16.7,20.7
	C688.7,33.8,683,40.7,676.4,48.6z"/>
<path d="M715.6,125.4c0,8.4,0,15.4,0,24.4c-9.9-5.7-18.8-10.7-27.6-15.8c-8.6-5-17.1-10.2-25.3-16.9
	C680.1,119.8,697.5,122.5,715.6,125.4z"/>
<path d="M674.7,51.6c-7.2,17.3-13.9,33.6-21.3,51.6c0-22.4,0-42.7,0-64.9C661.2,43.3,667.6,47.3,674.7,51.6z"/>
<path class="st0" d="M717.8,100.2c0-9.4,0-18.8,0-28.9c-4,1.3-6.8,2.2-9.6,3.1c-0.4-0.7-0.8-1.3-1.2-2c4.5-3.9,9-7.8,15.1-13
	c1.2,15,0,27.9-0.1,40.9C720.6,100.2,719.2,100.2,717.8,100.2z"/>
</svg>
