<svg xmlns="http://www.w3.org/2000/svg" viewBox="0 0 1920 1080"><style type="text/css">  
	.st0{fill:#FFFFFF;}
</style><path class="st0" d="M230.7 974.8c0-281.8 0-563.6 0-845.4 481.3 0 962.7 0 1444 0 0 281.8 0 563.6 0 845.4C1193.4 974.8 712 974.8 230.7 974.8zM775.8 706.7c1.5-2 2.6-3 3.3-4.2 11-20 25.7-37.6 35.1-58.7 5.3-11.7 15.1-21.5 23.5-31.6 4.7-5.6 8.6-11.1 10.5-18.3 1.3-4.9 3.7-9.6 6.2-15.9 36.5 37.9 53.7 83.5 68.7 130.4 -10.1-51.1-27-99-64-137.3 27.6-56.5 62-108.3 93.7-162.5 32.4 55.5 67.2 108.2 95.3 165.7 -18.9 17.2-32.7 38.3-43.5 61.5 -12 25.8-22.6 60.4-21.7 72.3 15-46.9 32.6-91.3 69.3-126.7 2 4 3.9 6.4 4.3 9 1.6 10.1 7.7 17.2 14 24.6 8.3 9.8 16.8 19.9 22.3 31.3 6.8 14.3 15.1 27.4 23.9 40.4 4.4 6.4 8.3 13.1 12.7 20.1 2.7-1.7 4.7-2.9 7-4.4 -2.2-4-4.2-7.3-6-10.7 -10.6-19.8-21-39.7-31.7-59.4 -1.5-2.7-4.3-4.7-6.2-7.2 -5.9-7.5-12.4-14.8-17.4-22.9 -5.1-8.4-8.6-17.8-13.1-27.4 1.2-0.9 2.8-2.2 4.5-3.3 25.7-15.3 54.1-22 83.5-25.1 4.5-0.5 6.6 1.8 8.7 4.8 7.4 11 15.1 21.7 22 33 20.2 33.1 36.3 68 45.1 106 4.7 20.5 2.2 39.5-7.4 58.1 -10.7 20.8-24.5 39.4-39.8 57 -0.9 1.1-2 2.1-2.9 3.1 -0.7 0.8-1.2 1.7-1.5 2 13.6-5.4 27.1-10.8 42.8-17 17.2-39.9 24.9-83 12.2-128.2 -13.9-49.5-35.7-95.6-60.4-140.5 -3.9-7.1-8.8-12.4-15.9-16.6 -16.8-10-19.7-18-14.4-36.7 1.5-5.5 3.9-10.7 6-16 0.7-1.9 1.6-3.7 2.4-5.5 -8.4 7.7-13.2 17.4-17.5 27.5 -6 14.3-2.4 28.7-0.3 41.5 -25.1 15.8-49.3 30.9-73.9 46.4 -0.9-1.3-2.5-3.5-3.9-5.9 -9.4-16.4-18.7-32.9-27.9-49.4 -20.3-36.1-40.5-72.2-60.9-108.2 -1.9-3.4-2.7-6.3-0.5-9.9 4-6.7 7.9-13.5 11.3-20.5 9.2-19 24.9-32.6 39.6-46.8 11.7-11.4 14.4-14.6 15.9-30.8 0.2-2.1 2.2-4.3 3.7-6.1 6.2-7.2 9.8-14.8 5.5-24.5 -1.3-2.8-1.3-6.2-1.9-9.4 -0.8-4.3-1.6-8.7-2.5-13.6 -7 4.6-5.6 11.2-7.2 17.8 -1.3-2.4-2-3.7-3.1-5.6 -1.9 4.5-3.6 8.4-5.2 12.3 -2.7 6.7-7.6 11.6-14.3 13.5 -6.4 1.8-8.3 5.2-8.5 11.5 -0.4 10.7-4.6 20.3-9.1 30 -7.6 16.1-18.8 30.3-24.4 47.4 -1.9 5.7-5.2 10.8-8.6 17.7 -2.4-4.7-4.5-8-5.8-11.5 -6.6-18.2-17.2-34.3-26.1-51.3 -5.6-10.8-10.1-21.7-10.6-33.9 -0.2-5.1-1.9-7.8-6.9-9.2 -8.5-2.4-13.8-8.4-16.9-16.6 -1.2-3.2-2.7-6.3-4.3-10 -1 2.2-1.6 3.6-2.5 5.4 -1.7-6.2-3.2-11.5-4.7-16.8 -0.9 0-1.8-0.1-2.6-0.1 -1 3.8-2.1 7.7-2.9 11.5 -0.6 2.8-0.2 5.8-1.2 8.4 -4.6 10.9-2.3 20.1 6.1 28.2 1.5 1.5 2.4 4.3 2.4 6.5 -0.2 7.5 5.2 20.8 10.4 25.2 7.8 6.6 15.9 13 23 20.3 12.3 12.5 21.1 27.7 30 42.6 4.7 7.9 5.7 15.4-0.3 24.5 -8.9 13.3-15.5 28.1-23.1 42.2 -3.4 6.3-6.5 12.7-10.1 18.9 -14.1 24.4-28.3 48.8-42.5 73.2 -4.1 7-8.2 13.9-12.9 21.7 -23.9-20.7-49.8-36.3-76.9-49.6 1.1-9.2 3.3-17.7 2.8-26.1 -0.6-8.3-3.4-16.7-6.4-24.6 -2.8-7.6-7.6-14.4-13.3-20.3 1.3 5.3 3.6 10.1 5.4 15.1 8.8 24.6 5.9 32.4-16.4 46 -3.2 1.9-6.4 4.8-8.2 7.9 -25.1 43.8-46.5 89.3-61.7 137.6 -8.9 28.3-10.9 56.7-5.7 85.7 3.3 18.7 8.4 36.8 17.4 54.2 15.3 0.5 27.7 8.4 41 14.7 -1-1.9-2.3-3.4-3.6-4.8 -15.2-17.2-28.8-35.5-39.7-55.8 -10.8-20.1-13.4-40.8-7.8-63.2 12.5-50.5 36.9-95 66.8-136.9 2.7-3.7 5.6-4.5 10-4.1 22.2 2.4 43.8 7.1 64.3 15.9 9.7 4.2 19.4 8.8 26.4 15.5 -5.1 10.3-9.6 20-14.5 29.4 -2.6 5-5.2 10.6-9.2 14.3 -10.2 9.4-17.2 20.6-22.4 33.2 -0.9 2.3-2.3 4.4-3.6 6.6 -8.5 14.9-17.1 29.7-25.6 44.6 -0.5 0.9-0.5 2-0.8 3.3C771.4 704.3 773.2 705.3 775.8 706.7zM233.7 133.2c1.3 2.5 1.5 3.2 2 3.8 33.9 45.4 52.7 96.1 52.8 153.2 0 34.1-4.8 67.7-11.6 101 -2.1 10-4.5 20-6.7 30 2.6-2.9 4.1-6.1 5.6-9.4 25.8-58.9 39.5-120.7 45.3-184.4 0.2-2.6 1.1-5.2 1.7-8.2 3.1 0.6 5.1 0.9 7.2 1.4 73.9 17.7 141.7 48.5 203.7 92.4 60.2 42.7 115.8 90.8 169.1 141.7 2.4 2.3 4.9 4.5 7.6 7 0.3-1.3 0.5-1.7 0.4-1.8 -1.3-1.7-2.6-3.4-4-5 -43.9-47.2-90.9-91-141.4-131 -48.9-38.6-101.3-72-155.6-102.5C352.9 189.8 294.8 160.8 233.7 133.2zM1667.8 140.3c-58.1 26.2-113.8 54.4-168.7 84.3 -113.1 61.6-212.9 140.2-300.5 234.5 -2.3 2.4-4.3 5.1-6.4 7.7 4.7-2.3 8.2-5.6 11.7-8.9 51.4-48.8 104.9-95 162.6-136.3 62.7-44.9 131.3-76.5 206.3-94.5 2.6-0.6 5.3-0.7 8.9-1.2 5.9 69.4 19.8 135.8 49.5 198.2 0.4-1.8 0.6-3.5 0.1-5.2 -8.1-31.9-13-64.4-15.7-97.2 -3.9-47.9 3.9-93.4 25.9-136.1C1649.3 170.5 1658.6 156.2 1667.8 140.3zM905.4 604c0.7-1.8 1.4-2.9 1.7-4.2 1.8-6.1 6.9-7.8 11.8-6.8 5.1 1 12.5 3.1 14.1 6.8 4.1 9.5 7.4 20.1 7.8 30.4 1.6 45.7 1.8 91.4 2.9 137.2 0.8 36.8 1.9 73.6 3.1 110.4 0.7 20.7 1.7 41.4 2.8 62.1 0.5 9.3 1.8 18.5 2.8 27.7 1.9-2.7 2.7-5.5 2.9-8.2 1.7-26.7 3.9-53.5 4.7-80.2 1.7-58.9 2.7-117.9 4-176.8 0.5-24.3 1-48.6 1.7-72.9 0.1-3.1 0.9-6.2 1.7-9.3 2-7.4 4.2-14.7 6.3-22.3 5.4-1.7 10.4-4.4 15.7-4.8 6.3-0.5 10.7 3.3 10.9 11.6 8.4-5.1 17.9-5.9 22.2-15.5 -1.5-0.8-2.4-1.9-3.2-1.8 -11.6 1.6-20.7-3.5-29-10.8 -1.6-1.4-3.5-3-5.4-3.2 -7.9-0.8-13.7-4.4-18.2-12.2 2.8-2.8 5.7-5.9 9.4-9.6 -2.4-2-4.2-4.3-6.6-5.4 -6.8-3.1-9-8.7-9.1-15.5 -0.1-20.4-0.1-40.7 0-61.1 0-3.4-0.5-6.5 4.5-8.3 4.4-1.6 4.8-6.8 1.5-9.7 -4.1-3.6-8.9-6.5-13-9.5 -4.5 3.1-8.4 5.5-11.9 8.4 -3.2 2.6-4.3 7.7-1.3 9.3 9.2 5 6.8 13.1 6.8 20.4 -0.1 17.1-1.1 34.3-1.1 51.4 0 6.9-2.1 11.5-8.4 14.5 -2.4 1.1-4.2 3.3-6.7 5.4 3.6 3.7 6.5 6.7 9.5 9.8 -8.3 9.1-8.3 9.1-16.4 11.5 -2 0.6-4.3 1.2-5.7 2.5 -9.1 8.7-19.5 13.8-33.2 11.8C887.4 599.4 897.9 599.2 905.4 604zM691.2 507c-6.1 0-12.1-0.1-18.2 0 -47.1 0.5-93.2 7.3-138.3 20.8 -61.6 18.5-118.9 46.7-174 79.4 -2.8 1.7-5.5 3.4-8.3 5.1 32.3 0.6 63.6 2.4 94.7 7.9 31.3 5.5 59.8 17.9 86.9 34.1 -30.3-27.4-63.3-49.9-105.2-61.5C509.9 539.2 597.8 515.5 691.2 507zM1211.9 514.3c124.2 7.4 231.3 58.8 260.1 85.4 -39.8 11.3-72.8 33.5-102.6 60.8 3.3-1.1 6.2-2.9 9.2-4.7 20.7-12.4 42.6-21.6 66.2-27 32.3-7.4 65-9.1 98-8.8 2.6 0 5.1 0 7.7 0 -12.4-9.1-24.9-16.6-37.7-23.6 -63-34.5-128.2-63-199.6-75.4C1279.6 515.3 1245.9 512.2 1211.9 514.3zM1210.8 494.2c3.2-1.2 6.4-2.3 9.6-3.6 83-32 168.6-49.2 257.9-43.9 42.4 2.6 83.3 12.4 122.3 29.8 2.1 0.9 3.9 2.4 6 3.8 -38.1 30.2-54.6 61.2-61 94.5 13.6-23.9 28.7-45.5 49.8-62.2 21-16.6 45-27.3 71-37.1C1510.9 421.7 1359.4 424.5 1210.8 494.2zM691.9 487.5c-148.5-69.3-300-72.1-453.5-18.8 16.3 7.9 32.6 15.1 48.3 23.5 15.6 8.3 29.5 19.1 40.6 32.9 10.9 13.5 20.7 28 30.8 41.9 -9.4-38-29.8-69-63-93.1 2.1-1.1 3-1.6 4-2.1 4.2-1.9 8.4-4 12.7-5.7 50.2-20.1 102.3-28.3 156.2-26.6 60.8 1.9 120 12.7 177.7 31.4C661.4 476 676.6 482 691.9 487.5zM650.3 762.2c-5.1-16.7-12.1-32.7-22.1-47.1 -10-14.3-21-27.8-31.6-41.7 17.3-49.7 53-85.2 94.1-119 -37.7 15-98.7 81.4-120.8 130.3C604.5 702.1 632.9 726.4 650.3 762.2zM1307.1 681.1c-23.9 24.9-43.1 52.9-53.6 86.4 17.4-35.1 45.4-59.2 79.7-76.3C1314 645.3 1244 569.3 1213.8 562 1253.9 594.6 1289.1 630.1 1307.1 681.1zM951.3 253.8c13.6-22.7 26.3-43.9 39.7-66.3 -26.5-0.6-51.6-1.2-78-1.8C926 208.7 938.2 230.4 951.3 253.8zM1018.2 247.3c-8.3-19.9-16.1-38.4-24.2-58 -13.4 22.1-25.9 42.7-39.7 65.5C976.7 252.2 996.7 249.9 1018.2 247.3zM913.9 182.6c26.4 0 50.7 0 76.3 0 -12.2-16.6-24-32.6-36.2-49.2C940.6 149.9 927.9 165.5 913.9 182.6zM948.2 254.8c-12.8-22.8-24.8-44-37.6-66.7 -8.3 20-15.7 38.2-23.7 57.4C907.6 248.6 927 251.6 948.2 254.8zM1017.6 237.4c0.6-0.2 1.2-0.3 1.8-0.5 0-20.6 0-41.3 0-63.1 -8 4.3-15.4 8.2-23 12.3C1003.7 203.8 1010.6 220.6 1017.6 237.4zM1017.5 171c-15.7-11.9-45.3-28.6-53.6-29.9 10.6 14.4 20.8 28.3 31 42.1C1003 178.8 1010 175 1017.5 171zM1008.5 253.7c-0.3-0.6-0.5-1.3-0.8-1.9 -17.9 2.3-35.8 4.6-53.5 6.9 0 8.6 0 16.2 0 25.1C973.1 273.3 990.8 263.5 1008.5 253.7zM910.1 181.9c6.6-8 12.3-14.8 17.9-21.7 5.6-6.9 11.1-13.8 16.7-20.7 -0.4-0.4-0.9-0.7-1.3-1.1 -17.8 9.9-35.5 19.8-54.5 30.4C896.8 173.6 903.1 177.5 910.1 181.9zM949.3 258.6c-18.2-2.9-35.5-5.6-52.8-8.3 8.2 6.6 16.7 11.8 25.3 16.9 8.8 5.1 17.6 10.1 27.6 15.8C949.3 274 949.3 267 949.3 258.6zM908.4 184.8c-7-4.4-13.5-8.4-21.3-13.2 0 22.1 0 42.5 0 64.9C894.5 218.4 901.2 202.2 908.4 184.8z"/><path d="M775.8 706.7c-2.5-1.4-4.3-2.4-6.2-3.5 0.3-1.3 0.4-2.5 0.8-3.3 8.5-14.9 17-29.7 25.6-44.6 1.2-2.2 2.6-4.3 3.6-6.6 5.1-12.6 12.2-23.8 22.4-33.2 4.1-3.7 6.6-9.3 9.2-14.3 4.9-9.4 9.5-19 14.5-29.4 -7-6.8-16.6-11.3-26.4-15.5 -20.5-8.8-42.1-13.5-64.3-15.9 -4.4-0.5-7.4 0.3-10 4.1 -29.9 41.9-54.3 86.4-66.8 136.9 -5.5 22.4-3 43 7.8 63.2 10.9 20.3 24.4 38.6 39.7 55.8 1.3 1.5 2.6 2.9 3.6 4.8 -13.3-6.3-25.7-14.2-41-14.7 -9-17.4-14-35.5-17.4-54.2 -5.2-29-3.2-57.5 5.7-85.7 15.2-48.3 36.5-93.8 61.7-137.6 1.8-3.2 5-6 8.2-7.9 22.3-13.6 25.2-21.4 16.4-46 -1.8-5-4.1-9.8-5.4-15.1 5.7 5.9 10.4 12.7 13.3 20.3 3 7.9 5.8 16.3 6.4 24.6 0.6 8.3-1.7 16.9-2.8 26.1 27.1 13.4 53 29 76.9 49.6 4.6-7.8 8.8-14.7 12.9-21.7 14.2-24.4 28.4-48.7 42.5-73.2 3.6-6.2 6.7-12.6 10.1-18.9 7.6-14.2 14.2-28.9 23.1-42.2 6-9 5.1-16.5 0.3-24.5 -8.9-14.9-17.7-30.1-30-42.6 -7.1-7.3-15.2-13.7-23-20.3 -5.2-4.4-10.6-17.7-10.4-25.2 0-2.2-0.9-5-2.4-6.5 -8.4-8.2-10.6-17.3-6.1-28.2 1-2.5 0.6-5.6 1.2-8.4 0.8-3.9 1.9-7.7 2.9-11.5 0.9 0 1.8 0.1 2.6 0.1 1.5 5.3 2.9 10.5 4.7 16.8 0.8-1.9 1.5-3.2 2.5-5.4 1.6 3.7 3.2 6.8 4.3 10 3 8.2 8.4 14.2 16.9 16.6 5 1.4 6.7 4.1 6.9 9.2 0.5 12.2 5 23.1 10.6 33.9 8.8 17 19.5 33.1 26.1 51.3 1.3 3.5 3.4 6.8 5.8 11.5 3.4-6.9 6.8-12 8.6-17.7 5.6-17.1 16.8-31.3 24.4-47.4 4.5-9.7 8.7-19.3 9.1-30 0.2-6.3 2.1-9.7 8.5-11.5 6.7-1.9 11.6-6.8 14.3-13.5 1.6-3.9 3.3-7.8 5.2-12.3 1.1 1.9 1.8 3.2 3.1 5.6 1.6-6.6 0.3-13.2 7.2-17.8 0.9 4.9 1.7 9.2 2.5 13.6 0.6 3.1 0.7 6.5 1.9 9.4 4.3 9.7 0.7 17.2-5.5 24.5 -1.5 1.8-3.5 3.9-3.7 6.1 -1.5 16.1-4.1 19.4-15.9 30.8 -14.7 14.2-30.4 27.8-39.6 46.8 -3.4 7-7.3 13.8-11.3 20.5 -2.1 3.6-1.4 6.5 0.5 9.9 20.3 36 40.6 72.2 60.9 108.2 9.3 16.5 18.6 33 27.9 49.4 1.4 2.4 3.1 4.6 3.9 5.9 24.6-15.5 48.8-30.6 73.9-46.4 -2.1-12.9-5.7-27.2 0.3-41.5 4.2-10.1 9.1-19.8 17.5-27.5 -0.8 1.8-1.6 3.6-2.4 5.5 -2.1 5.3-4.5 10.5-6 16 -5.3 18.7-2.4 26.7 14.4 36.7 7.1 4.2 12 9.5 15.9 16.6 24.7 44.9 46.6 91 60.4 140.5 12.7 45.2 5 88.4-12.2 128.2 -15.6 6.2-29.2 11.6-42.8 17 0.3-0.4 0.8-1.3 1.5-2 0.9-1.1 2-2.1 2.9-3.1 15.4-17.5 29.1-36.1 39.8-57 9.6-18.6 12.1-37.6 7.4-58.1 -8.8-38.1-24.9-72.9-45.1-106 -6.9-11.3-14.6-22-22-33 -2-3-4.2-5.3-8.7-4.8 -29.4 3.1-57.8 9.8-83.5 25.1 -1.8 1.1-3.3 2.4-4.5 3.3 4.5 9.6 8 18.9 13.1 27.4 4.9 8.2 11.5 15.4 17.4 22.9 2 2.5 4.8 4.5 6.2 7.2 10.7 19.7 21.2 39.6 31.7 59.4 1.8 3.4 3.8 6.8 6 10.7 -2.3 1.4-4.3 2.7-7 4.4 -4.4-7-8.4-13.7-12.7-20.1 -8.8-13-17.1-26.1-23.9-40.4 -5.4-11.4-14-21.5-22.3-31.3 -6.3-7.5-12.4-14.6-14-24.6 -0.4-2.6-2.3-5-4.3-9 -36.7 35.4-54.2 79.8-69.3 126.7 -1-11.9 9.6-46.5 21.7-72.3 10.8-23.2 24.7-44.3 43.5-61.5 -28.1-57.4-62.9-110.1-95.3-165.7 -31.7 54.2-66.1 106-93.7 162.5 37.1 38.2 53.9 86.2 64 137.3 -14.9-46.9-32.2-92.5-68.7-130.4 -2.5 6.3-4.9 10.9-6.2 15.9 -1.9 7.2-5.8 12.7-10.5 18.3 -8.4 10.1-18.2 19.9-23.5 31.6 -9.5 21.1-24.1 38.7-35.1 58.7C778.4 703.7 777.3 704.8 775.8 706.7z"/><path d="M233.7 133.2c61.1 27.6 119.2 56.6 175.9 88.3C464 252 516.3 285.4 565.2 324c50.6 40 97.6 83.8 141.4 131 1.4 1.6 2.7 3.3 4 5 0.1 0.1-0.1 0.6-0.4 1.8 -2.7-2.5-5.2-4.7-7.6-7 -53.3-50.9-108.9-99.1-169.1-141.7 -62-43.9-129.8-74.7-203.7-92.4 -2-0.5-4.1-0.8-7.2-1.4 -0.7 3-1.5 5.6-1.7 8.2 -5.8 63.8-19.5 125.6-45.3 184.4 -1.4 3.3-2.9 6.5-5.6 9.4 2.3-10 4.7-20 6.7-30 6.8-33.3 11.6-66.9 11.6-101 -0.1-57.1-18.9-107.8-52.8-153.2C235.2 136.4 235 135.7 233.7 133.2z"/><path d="M1667.8 140.3c-9.3 15.8-18.5 30.2-26.3 45.3 -22 42.7-29.8 88.3-25.9 136.1 2.7 32.9 7.6 65.3 15.7 97.2 0.4 1.6 0.3 3.4-0.1 5.2 -29.8-62.4-43.7-128.8-49.5-198.2 -3.6 0.5-6.3 0.6-8.9 1.2 -75 17.9-143.6 49.6-206.3 94.5 -57.7 41.3-111.2 87.5-162.6 136.3 -3.5 3.3-7 6.6-11.7 8.9 2.1-2.6 4.2-5.2 6.4-7.7 87.5-94.3 187.4-172.9 300.5-234.5C1554 194.7 1609.7 166.5 1667.8 140.3z"/><path d="M905.4 604c-7.5-4.9-17.9-4.7-20.8-16.7 13.7 1.9 24.1-3.1 33.2-11.8 1.4-1.4 3.7-1.9 5.7-2.5 8.1-2.5 8.1-2.4 16.4-11.5 -2.9-3-5.9-6.1-9.5-9.8 2.5-2 4.4-4.2 6.7-5.4 6.3-3 8.4-7.6 8.4-14.5 0.1-17.1 1.1-34.3 1.1-51.4 0-7.3 2.4-15.4-6.8-20.4 -3-1.6-1.9-6.7 1.3-9.3 3.5-2.9 7.4-5.2 11.9-8.4 4.1 3 8.9 5.9 13 9.5 3.3 2.8 2.9 8.1-1.5 9.7 -4.9 1.8-4.4 5-4.5 8.3 -0.1 20.4-0.1 40.7 0 61.1 0 6.8 2.3 12.4 9.1 15.5 2.4 1.1 4.2 3.4 6.6 5.4 -3.6 3.7-6.6 6.8-9.4 9.6 4.5 7.8 10.3 11.4 18.2 12.2 1.9 0.2 3.8 1.8 5.4 3.2 8.3 7.3 17.4 12.4 29 10.8 0.8-0.1 1.7 0.9 3.2 1.8 -4.2 9.6-13.8 10.4-22.2 15.5 -0.2-8.4-4.6-12.1-10.9-11.6 -5.3 0.4-10.3 3-15.7 4.8 -2.2 7.6-4.3 14.9-6.3 22.3 -0.8 3-1.6 6.2-1.7 9.3 -0.7 24.3-1.1 48.6-1.7 72.9 -1.3 58.9-2.3 117.9-4 176.8 -0.8 26.8-3 53.5-4.7 80.2 -0.2 2.8-1 5.5-2.9 8.2 -1-9.2-2.3-18.4-2.8-27.7 -1.2-20.7-2.1-41.4-2.8-62.1 -1.2-36.8-2.3-73.6-3.1-110.4 -1-45.7-1.3-91.5-2.9-137.2 -0.4-10.3-3.7-20.9-7.8-30.4 -1.6-3.7-9-5.8-14.1-6.8 -4.9-1-10.1 0.7-11.8 6.8C906.7 601.1 906.1 602.3 905.4 604z"/><path d="M691.2 507c-93.4 8.5-181.3 32.2-262.4 85.7 41.9 11.5 74.9 34 105.2 61.5 -27.1-16.2-55.6-28.6-86.9-34.1 -31.1-5.5-62.4-7.2-94.7-7.9 2.8-1.7 5.5-3.5 8.3-5.1 55.2-32.7 112.4-60.9 174-79.4 45.1-13.5 91.3-20.3 138.3-20.8C679.1 507 685.2 507 691.2 507z"/><path d="M1211.9 514.3c34-2.1 67.7 1 101.3 6.8 71.3 12.4 136.6 40.9 199.6 75.4 12.8 7 25.3 14.4 37.7 23.6 -2.6 0-5.1 0-7.7 0 -33-0.3-65.7 1.4-98 8.8 -23.5 5.4-45.5 14.6-66.2 27 -2.9 1.8-5.9 3.6-9.2 4.7 29.8-27.4 62.8-49.5 102.6-60.8C1443.2 573.1 1336.1 521.7 1211.9 514.3z"/><path d="M1210.8 494.2c148.6-69.7 300.1-72.4 455.6-18.6 -25.9 9.8-50 20.5-71 37.1 -21.1 16.7-36.2 38.3-49.8 62.2 6.5-33.3 22.9-64.4 61-94.5 -2.1-1.4-3.9-2.9-6-3.8 -38.9-17.4-79.8-27.2-122.3-29.8 -89.3-5.4-174.9 11.8-257.9 43.9C1217.3 491.8 1214 493 1210.8 494.2z"/><path d="M691.9 487.5c-15.4-5.6-30.6-11.6-46.1-16.6 -57.8-18.8-116.9-29.5-177.7-31.4 -53.9-1.7-106.1 6.5-156.2 26.6 -4.3 1.7-8.5 3.8-12.7 5.7 -1 0.4-1.9 1-4 2.1 33.2 24.1 53.7 55 63 93.1 -10.2-13.9-20-28.3-30.8-41.9 -11.1-13.8-25-24.6-40.6-32.9 -15.7-8.4-32-15.6-48.3-23.5C391.9 415.4 543.4 418.2 691.9 487.5z"/><path d="M650.3 762.2c-17.4-35.8-45.8-60-80.4-77.4 22.1-48.9 83.1-115.3 120.8-130.3 -41.1 33.8-76.8 69.3-94.1 119 10.6 13.9 21.6 27.4 31.6 41.7C638.2 729.4 645.2 745.4 650.3 762.2z"/><path d="M1307.1 681.1c-18-51-53.2-86.5-93.2-119.1 30.2 7.4 100.2 83.4 119.3 129.2 -34.3 17.2-62.3 41.2-79.7 76.3C1263.9 734 1283.2 706 1307.1 681.1z"/><path d="M951.3 253.8c-13.1-23.4-25.3-45-38.2-68.1 26.4 0.6 51.4 1.2 78 1.8C977.6 209.8 964.9 231.1 951.3 253.8zM951.5 233.4c1.4 0 2.8 0 4.2 0 0-13 1.2-25.9 0.1-40.9 -6.1 5.3-10.6 9.2-15.1 13 0.4 0.7 0.8 1.3 1.2 2 2.8-0.9 5.6-1.8 9.6-3.1C951.5 214.6 951.5 224 951.5 233.4z"/><path d="M1018.2 247.3c-21.5 2.5-41.5 4.9-63.9 7.5 13.8-22.8 26.3-43.4 39.7-65.5C1002.1 208.9 1009.9 227.4 1018.2 247.3z"/><path d="M913.9 182.6c13.9-17.1 26.6-32.7 40.1-49.2 12.2 16.6 23.9 32.6 36.2 49.2C964.7 182.6 940.3 182.6 913.9 182.6z"/><path d="M948.2 254.8c-21.1-3.2-40.6-6.2-61.2-9.3 7.9-19.3 15.4-37.4 23.7-57.4C923.4 210.8 935.3 232 948.2 254.8z"/><path d="M1017.6 237.4c-6.9-16.8-13.9-33.6-21.2-51.3 7.6-4.1 15-8 23-12.3 0 21.8 0 42.5 0 63.1C1018.8 237.1 1018.2 237.3 1017.6 237.4z"/><path d="M1017.5 171c-7.4 4-14.5 7.8-22.6 12.2 -10.2-13.8-20.4-27.7-31-42.1C972.2 142.4 1001.8 159.1 1017.5 171z"/><path d="M1008.5 253.7c-17.7 9.8-35.4 19.6-54.3 30.1 0-8.9 0-16.5 0-25.1 17.7-2.3 35.6-4.6 53.5-6.9C1008 252.4 1008.2 253.1 1008.5 253.7z"/><path d="M910.1 181.9c-7-4.3-13.3-8.2-21.2-13.1 19-10.6 36.8-20.5 54.5-30.4 0.4 0.4 0.9 0.7 1.3 1.1 -5.6 6.9-11.1 13.8-16.7 20.7C922.4 167 916.7 173.9 910.1 181.9z"/><path d="M949.3 258.6c0 8.4 0 15.4 0 24.4 -9.9-5.7-18.8-10.7-27.6-15.8 -8.6-5-17.1-10.2-25.3-16.9C913.8 253 931.2 255.7 949.3 258.6z"/><path d="M908.4 184.8c-7.2 17.3-13.9 33.6-21.3 51.6 0-22.4 0-42.7 0-64.9C894.9 176.5 901.4 180.5 908.4 184.8z"/><path class="st0" d="M951.5 233.4c0-9.4 0-18.8 0-28.9 -4 1.3-6.8 2.2-9.6 3.1 -0.4-0.7-0.8-1.3-1.2-2 4.5-3.9 9-7.8 15.1-13 1.2 15 0 27.9-0.1 40.9C954.3 233.4 952.9 233.4 951.5 233.4z"/></svg>