<svg xmlns="http://www.w3.org/2000/svg" viewBox="0 0 175 200"><style type="text/css">  
	.st0{fill:#231F20;}
	.st1{fill:#FFFFFF;}
</style><path d="M69.4 83.9c-5.7 0-10.2 5-10.2 11.1s4.6 11.1 10.2 11.1c5.7 0 10.2-5 10.2-11.1C79.7 88.9 75.1 83.9 69.4 83.9zM105.9 83.9c-5.7 0-10.2 5-10.2 11.1s4.6 11.1 10.2 11.1c5.7 0 10.2-5 10.2-11.1S111.6 83.9 105.9 83.9z"/><path class="st0" d="M154.5 0h-134C9.2 0 0 9.2 0 20.6v135.2c0 11.4 9.2 20.6 20.5 20.6h113.4l-5.3-18.5 12.8 11.9 12.1 11.2 21.5 19V20.6C175 9.2 165.8 0 154.5 0zM115.9 130.6c0 0-3.6-4.3-6.6-8.1 13.1-3.7 18.1-11.9 18.1-11.9 -4.1 2.7-8 4.6-11.5 5.9 -5 2.1-9.8 3.5-14.5 4.3 -9.6 1.8-18.4 1.3-25.9-0.1 -5.7-1.1-10.6-2.7-14.7-4.3 -2.3-0.9-4.8-2-7.3-3.4 -0.3-0.2-0.6-0.3-0.9-0.5 -0.2-0.1-0.3-0.2-0.4-0.3 -1.7-0.9-2.7-1.6-2.8-1.7 0.1 0.2 5 8 17.5 11.8 -3 3.8-6.7 8.3-6.7 8.3 -22.1-0.7-30.5-15.2-30.5-15.2 0-32.2 14.4-58.3 14.4-58.3 14.4-10.8 28.1-10.5 28.1-10.5l1 1.2c-18 5.2-26.3 13.1-26.3 13.1s2.2-1.2 5.9-2.9c10.7-4.7 19.2-6 22.7-6.3 0.6-0.1 1.1-0.2 1.7-0.2 6.1-0.8 13-1 20.2-0.2 9.5 1.1 19.7 3.9 30.1 9.6 0 0-7.9-7.5-24.9-12.7l1.4-1.6c0 0 13.7-0.3 28.1 10.5 0 0 14.4 26.1 14.4 58.3C146.5 115.4 138 129.9 115.9 130.6z"/><path class="st1" d="M132.1 57.1C117.7 46.3 104 46.6 104 46.6l-1.4 1.6c17 5.2 24.9 12.7 24.9 12.7 -10.4-5.7-20.6-8.5-30.1-9.6 -7.2-0.8-14.1-0.6-20.2 0.2 -0.6 0-1.1 0.1-1.7 0.2C72 52 63.5 53.3 52.8 58c-3.7 1.7-5.9 2.9-5.9 2.9s8.3-7.9 26.3-13.1l-1-1.2c0 0-13.7-0.3-28.1 10.5 0 0-14.4 26.1-14.4 58.3 0 0 8.4 14.5 30.5 15.2 0 0 3.7-4.5 6.7-8.3 -12.5-3.7-17.4-11.5-17.5-11.8 0.1 0.1 1.1 0.8 2.8 1.7 0.1 0.1 0.2 0.2 0.4 0.3 0.3 0.2 0.6 0.3 0.9 0.5 2.5 1.4 5 2.5 7.3 3.4 4.1 1.6 9 3.2 14.7 4.3 7.5 1.4 16.3 1.9 25.9 0.1 4.7-0.8 9.5-2.2 14.5-4.3 3.5-1.3 7.4-3.2 11.5-5.9 0 0-5 8.2-18.1 11.9 3 3.8 6.6 8.1 6.6 8.1 22.1-0.7 30.6-15.2 30.6-15.2C146.5 83.2 132.1 57.1 132.1 57.1zM69.4 106.1c-5.6 0-10.2-5-10.2-11.1s4.5-11.1 10.2-11.1c5.7 0 10.3 5 10.2 11.1C79.6 101.1 75.1 106.1 69.4 106.1zM105.9 106.1c-5.6 0-10.2-5-10.2-11.1s4.5-11.1 10.2-11.1c5.7 0 10.2 5 10.2 11.1S111.6 106.1 105.9 106.1z"/></svg>