<svg xmlns="http://www.w3.org/2000/svg" viewBox="0 0 256 256"><style type="text/css">  
	.st0{fill:#FFA500;}
	.st1{fill:#FFFFFF;}
</style><title>  RSS feed icon</title><path class="st0" d="M48 0h160c26.5 0 48 21.5 48 48v160c0 26.5-21.5 48-48 48H48c-26.5 0-48-21.5-48-48V48C0 21.5 21.5 0 48 0z"/><circle class="st1" cx="64" cy="192" r="32"/><path class="st1" d="M32 128c53 0 96 43 96 96h32c0-70.7-57.3-128-128-128V128z"/><path class="st1" d="M32 64c88.4 0 160 71.6 160 160h32c0-106-86-192-192-192V64z"/></svg>