<svg xmlns="http://www.w3.org/2000/svg" viewBox="0 0 250 250"><style type="text/css">  
	.st0{opacity:0.15;fill:none;stroke:#292F33;stroke-miterlimit:10;enable-background:new    ;}
	.st1{fill:#FFFFFF;}
</style><rect x="-75" y="-75" class="st0" width="400" height="400"/><path class="st1" d="M78.6 226.6c94.3 0 145.9-78.2 145.9-145.9 0-2.2 0-4.4-0.1-6.6 10-7.2 18.7-16.3 25.6-26.6 -9.2 4.1-19.1 6.8-29.5 8.1 10.6-6.3 18.7-16.4 22.6-28.4 -9.9 5.9-20.9 10.1-32.6 12.4 -9.4-10-22.7-16.2-37.4-16.2 -28.3 0-51.3 23-51.3 51.3 0 4 0.5 7.9 1.3 11.7C80.5 84.3 42.7 63.8 17.4 32.8c-4.4 7.6-6.9 16.4-6.9 25.8 0 17.8 9.1 33.5 22.8 42.7 -8.4-0.3-16.3-2.6-23.2-6.4 0 0.2 0 0.4 0 0.7 0 24.8 17.7 45.6 41.1 50.3 -4.3 1.2-8.8 1.8-13.5 1.8 -3.3 0-6.5-0.3-9.6-0.9 6.5 20.4 25.5 35.2 47.9 35.6 -17.6 13.8-39.7 22-63.7 22 -4.1 0-8.2-0.2-12.2-0.7C22.7 218.1 49.7 226.6 78.6 226.6"/></svg>